<mxfile host="Electron" modified="2024-05-07T10:15:24.935Z" agent="Mozilla/5.0 (Windows NT 10.0; Win64; x64) AppleWebKit/537.36 (KHTML, like Gecko) draw.io/24.2.5 Chrome/120.0.6099.109 Electron/28.1.0 Safari/537.36" etag="zD2MU3lK0czXIEncAD7M" version="24.2.5" type="device">
  <diagram id="-qd3kp8pFKtMvbqPUY02" name="Pagina-1">
    <mxGraphModel dx="1050" dy="621" grid="1" gridSize="10" guides="1" tooltips="1" connect="1" arrows="1" fold="1" page="1" pageScale="1" pageWidth="827" pageHeight="1169" math="0" shadow="0">
      <root>
        <mxCell id="0" />
        <mxCell id="1" parent="0" />
        <mxCell id="jsnhkCqs38g3QRP2JlGu-9" style="edgeStyle=orthogonalEdgeStyle;rounded=0;orthogonalLoop=1;jettySize=auto;html=1;exitX=0.25;exitY=0;exitDx=0;exitDy=0;endArrow=oval;endFill=1;" parent="1" source="jsnhkCqs38g3QRP2JlGu-11" edge="1">
          <mxGeometry relative="1" as="geometry">
            <mxPoint x="572.3333333333335" y="157.08" as="targetPoint" />
          </mxGeometry>
        </mxCell>
        <mxCell id="jsnhkCqs38g3QRP2JlGu-10" style="edgeStyle=orthogonalEdgeStyle;rounded=0;orthogonalLoop=1;jettySize=auto;html=1;exitX=0.75;exitY=0;exitDx=0;exitDy=0;endArrow=oval;endFill=0;" parent="1" source="jsnhkCqs38g3QRP2JlGu-11" edge="1">
          <mxGeometry relative="1" as="geometry">
            <mxPoint x="616" y="157.08" as="targetPoint" />
          </mxGeometry>
        </mxCell>
        <mxCell id="jsnhkCqs38g3QRP2JlGu-11" value="Esperienza" style="whiteSpace=wrap;html=1;align=center;" parent="1" vertex="1">
          <mxGeometry x="550" y="173.33" width="90" height="28.75" as="geometry" />
        </mxCell>
        <mxCell id="jsnhkCqs38g3QRP2JlGu-12" value="&lt;font style=&quot;font-size: 8px;&quot;&gt;Nome&lt;/font&gt;" style="text;html=1;align=center;verticalAlign=middle;whiteSpace=wrap;rounded=1;strokeColor=none;" parent="1" vertex="1">
          <mxGeometry x="551.63" y="137.1" width="40" height="20" as="geometry" />
        </mxCell>
        <mxCell id="jsnhkCqs38g3QRP2JlGu-13" value="&lt;font style=&quot;font-size: 8px;&quot;&gt;Descrizione&lt;/font&gt;" style="text;html=1;align=center;verticalAlign=middle;whiteSpace=wrap;rounded=1;strokeColor=none;" parent="1" vertex="1">
          <mxGeometry x="597.88" y="138.33" width="40" height="20" as="geometry" />
        </mxCell>
        <mxCell id="jsnhkCqs38g3QRP2JlGu-14" value="&lt;font style=&quot;font-size: 8px;&quot;&gt;Durata&lt;/font&gt;" style="text;html=1;align=center;verticalAlign=middle;whiteSpace=wrap;rounded=1;strokeColor=none;" parent="1" vertex="1">
          <mxGeometry x="661" y="170.58" width="40" height="20" as="geometry" />
        </mxCell>
        <mxCell id="jsnhkCqs38g3QRP2JlGu-15" value="&lt;font style=&quot;font-size: 8px;&quot;&gt;Luogo&lt;/font&gt;" style="text;html=1;align=center;verticalAlign=middle;whiteSpace=wrap;rounded=1;strokeColor=none;" parent="1" vertex="1">
          <mxGeometry x="660" y="184.08" width="40" height="20" as="geometry" />
        </mxCell>
        <mxCell id="jsnhkCqs38g3QRP2JlGu-16" style="edgeStyle=orthogonalEdgeStyle;rounded=0;orthogonalLoop=1;jettySize=auto;html=1;exitX=1;exitY=0.5;exitDx=0;exitDy=0;endArrow=oval;endFill=0;" parent="1" edge="1">
          <mxGeometry relative="1" as="geometry">
            <mxPoint x="640" y="182.38000000000002" as="sourcePoint" />
            <mxPoint x="663.12" y="182.38000000000002" as="targetPoint" />
          </mxGeometry>
        </mxCell>
        <mxCell id="jsnhkCqs38g3QRP2JlGu-17" style="edgeStyle=orthogonalEdgeStyle;rounded=0;orthogonalLoop=1;jettySize=auto;html=1;exitX=1;exitY=0.5;exitDx=0;exitDy=0;endArrow=oval;endFill=0;" parent="1" edge="1">
          <mxGeometry relative="1" as="geometry">
            <mxPoint x="640" y="196.08" as="sourcePoint" />
            <mxPoint x="663" y="196.08" as="targetPoint" />
            <Array as="points">
              <mxPoint x="656" y="196.08" />
            </Array>
          </mxGeometry>
        </mxCell>
        <mxCell id="jsnhkCqs38g3QRP2JlGu-30" value="&lt;span style=&quot;font-size: 8px;&quot;&gt;(0,N)&lt;/span&gt;" style="text;html=1;align=center;verticalAlign=middle;whiteSpace=wrap;rounded=1;strokeColor=none;glass=0;" parent="1" vertex="1">
          <mxGeometry x="250.00000000000006" y="166.29000000000008" width="22.5" height="6.75" as="geometry" />
        </mxCell>
        <mxCell id="jsnhkCqs38g3QRP2JlGu-31" value="&lt;font style=&quot;font-size: 8px;&quot;&gt;(0,N)&lt;/font&gt;" style="text;html=1;align=center;verticalAlign=middle;whiteSpace=wrap;rounded=1;strokeColor=none;glass=0;" parent="1" vertex="1">
          <mxGeometry x="520" y="165.36999999999992" width="22.5" height="6.75" as="geometry" />
        </mxCell>
        <mxCell id="jsnhkCqs38g3QRP2JlGu-32" value="" style="endArrow=none;html=1;rounded=0;entryX=1;entryY=0.5;entryDx=0;entryDy=0;exitX=0;exitY=0.5;exitDx=0;exitDy=0;" parent="1" source="jsnhkCqs38g3QRP2JlGu-38" edge="1">
          <mxGeometry width="50" height="50" relative="1" as="geometry">
            <mxPoint x="510.19000000000005" y="185.60000000000002" as="sourcePoint" />
            <mxPoint x="242" y="185.60000000000002" as="targetPoint" />
          </mxGeometry>
        </mxCell>
        <mxCell id="jsnhkCqs38g3QRP2JlGu-38" value="V-P" style="shape=rhombus;perimeter=rhombusPerimeter;whiteSpace=wrap;html=1;align=center;" parent="1" vertex="1">
          <mxGeometry x="260" y="164.42000000000002" width="73.56" height="42.36" as="geometry" />
        </mxCell>
        <mxCell id="jsnhkCqs38g3QRP2JlGu-39" value="" style="endArrow=none;html=1;rounded=0;entryX=1;entryY=0.5;entryDx=0;entryDy=0;exitX=0;exitY=0.5;exitDx=0;exitDy=0;" parent="1" source="jsnhkCqs38g3QRP2JlGu-41" target="jsnhkCqs38g3QRP2JlGu-38" edge="1">
          <mxGeometry width="50" height="50" relative="1" as="geometry">
            <mxPoint x="510.19000000000005" y="185.60000000000002" as="sourcePoint" />
            <mxPoint x="242" y="185.60000000000002" as="targetPoint" />
          </mxGeometry>
        </mxCell>
        <mxCell id="jsnhkCqs38g3QRP2JlGu-40" value="" style="endArrow=none;html=1;rounded=0;entryX=1;entryY=0.5;entryDx=0;entryDy=0;exitX=0;exitY=0.5;exitDx=0;exitDy=0;" parent="1" source="jsnhkCqs38g3QRP2JlGu-44" target="jsnhkCqs38g3QRP2JlGu-41" edge="1">
          <mxGeometry width="50" height="50" relative="1" as="geometry">
            <mxPoint x="510.19000000000005" y="185.60000000000002" as="sourcePoint" />
            <mxPoint x="326" y="185.34000000000003" as="targetPoint" />
          </mxGeometry>
        </mxCell>
        <mxCell id="jsnhkCqs38g3QRP2JlGu-41" value="Partecipazione" style="whiteSpace=wrap;html=1;align=center;" parent="1" vertex="1">
          <mxGeometry x="350" y="172.60000000000002" width="90.38" height="26.28" as="geometry" />
        </mxCell>
        <mxCell id="jsnhkCqs38g3QRP2JlGu-43" value="" style="endArrow=none;html=1;rounded=0;entryX=1;entryY=0.5;entryDx=0;entryDy=0;exitX=0;exitY=0.5;exitDx=0;exitDy=0;" parent="1" target="jsnhkCqs38g3QRP2JlGu-44" edge="1">
          <mxGeometry width="50" height="50" relative="1" as="geometry">
            <mxPoint x="549.6200000000001" y="185.73513618677032" as="sourcePoint" />
            <mxPoint x="430" y="185.34000000000003" as="targetPoint" />
          </mxGeometry>
        </mxCell>
        <mxCell id="jsnhkCqs38g3QRP2JlGu-44" value="P-E" style="shape=rhombus;perimeter=rhombusPerimeter;whiteSpace=wrap;html=1;align=center;" parent="1" vertex="1">
          <mxGeometry x="464" y="166.28999999999996" width="70" height="39.81" as="geometry" />
        </mxCell>
        <mxCell id="jsnhkCqs38g3QRP2JlGu-45" value="&lt;span style=&quot;font-size: 8px;&quot;&gt;(1,1)&lt;/span&gt;" style="text;html=1;align=center;verticalAlign=middle;whiteSpace=wrap;rounded=1;strokeColor=none;glass=0;" parent="1" vertex="1">
          <mxGeometry x="320.00000000000006" y="166.29000000000008" width="22.5" height="6.75" as="geometry" />
        </mxCell>
        <mxCell id="jsnhkCqs38g3QRP2JlGu-46" value="&lt;span style=&quot;font-size: 8px;&quot;&gt;(1,1)&lt;/span&gt;" style="text;html=1;align=center;verticalAlign=middle;whiteSpace=wrap;rounded=1;strokeColor=none;glass=0;" parent="1" vertex="1">
          <mxGeometry x="452.00000000000006" y="165.37000000000006" width="22.5" height="6.75" as="geometry" />
        </mxCell>
        <mxCell id="jsnhkCqs38g3QRP2JlGu-47" style="edgeStyle=orthogonalEdgeStyle;rounded=0;orthogonalLoop=1;jettySize=auto;html=1;exitX=0.25;exitY=0;exitDx=0;exitDy=0;entryX=0.842;entryY=1.009;entryDx=0;entryDy=0;entryPerimeter=0;endArrow=oval;endFill=1;" parent="1" edge="1">
          <mxGeometry relative="1" as="geometry">
            <mxPoint x="393.69" y="172.60000000000002" as="sourcePoint" />
            <mxPoint x="396.69" y="159.60000000000002" as="targetPoint" />
          </mxGeometry>
        </mxCell>
        <mxCell id="jsnhkCqs38g3QRP2JlGu-48" value="&lt;font style=&quot;font-size: 9px;&quot;&gt;Codice&lt;/font&gt;" style="text;html=1;align=center;verticalAlign=middle;whiteSpace=wrap;rounded=0;" parent="1" vertex="1">
          <mxGeometry x="375.19000000000005" y="139.9410116731517" width="40" height="17.314202334630348" as="geometry" />
        </mxCell>
        <mxCell id="jVQU0pwTON0__Qo3HRDj-1" value="&lt;font style=&quot;font-size: 8px;&quot;&gt;Ora&lt;/font&gt;" style="text;html=1;align=center;verticalAlign=middle;whiteSpace=wrap;rounded=1;strokeColor=none;glass=0;" vertex="1" parent="1">
          <mxGeometry x="101.41999999999985" y="136.70000000000002" width="50" height="15" as="geometry" />
        </mxCell>
        <mxCell id="jVQU0pwTON0__Qo3HRDj-2" value="&lt;font style=&quot;font-size: 8px;&quot;&gt;Ora Fine&lt;/font&gt;" style="text;html=1;align=center;verticalAlign=middle;whiteSpace=wrap;rounded=1;strokeColor=none;glass=0;" vertex="1" parent="1">
          <mxGeometry x="217.9999999999999" y="218.02" width="42" height="19" as="geometry" />
        </mxCell>
        <mxCell id="jVQU0pwTON0__Qo3HRDj-3" value="&lt;font style=&quot;font-size: 8px;&quot;&gt;Data&lt;/font&gt;" style="text;html=1;align=center;verticalAlign=middle;whiteSpace=wrap;rounded=1;strokeColor=none;glass=0;" vertex="1" parent="1">
          <mxGeometry x="101.41999999999985" y="124.14000000000001" width="50" height="15" as="geometry" />
        </mxCell>
        <mxCell id="jVQU0pwTON0__Qo3HRDj-4" style="edgeStyle=orthogonalEdgeStyle;rounded=0;orthogonalLoop=1;jettySize=auto;html=1;exitX=0;exitY=0;exitDx=0;exitDy=0;endArrow=oval;endFill=0;" edge="1" parent="1">
          <mxGeometry relative="1" as="geometry">
            <mxPoint x="139.41999999999996" y="133.49999999999997" as="targetPoint" />
            <mxPoint x="158.80000000000007" y="133.49999999999997" as="sourcePoint" />
            <Array as="points" />
          </mxGeometry>
        </mxCell>
        <mxCell id="jVQU0pwTON0__Qo3HRDj-5" style="edgeStyle=orthogonalEdgeStyle;rounded=0;orthogonalLoop=1;jettySize=auto;html=1;endArrow=oval;endFill=0;" edge="1" parent="1">
          <mxGeometry relative="1" as="geometry">
            <mxPoint x="139.41999999999996" y="146.61999999999998" as="targetPoint" />
            <mxPoint x="159.41999999999996" y="146.61999999999998" as="sourcePoint" />
            <Array as="points" />
          </mxGeometry>
        </mxCell>
        <mxCell id="jVQU0pwTON0__Qo3HRDj-6" value="" style="endArrow=none;html=1;rounded=0;entryX=0.551;entryY=1.003;entryDx=0;entryDy=0;entryPerimeter=0;" edge="1" parent="1">
          <mxGeometry width="50" height="50" relative="1" as="geometry">
            <mxPoint x="168.91999999999996" y="172.23999999999998" as="sourcePoint" />
            <mxPoint x="168.91999999999996" y="149.18000000000004" as="targetPoint" />
          </mxGeometry>
        </mxCell>
        <mxCell id="jVQU0pwTON0__Qo3HRDj-7" value="&lt;p style=&quot;line-height: 110%;&quot;&gt;&lt;font style=&quot;font-size: 7px;&quot;&gt;DataVisita&lt;/font&gt;&lt;/p&gt;" style="ellipse;whiteSpace=wrap;html=1;" vertex="1" parent="1">
          <mxGeometry x="151.41999999999996" y="129.11999999999998" width="36.12" height="20" as="geometry" />
        </mxCell>
        <mxCell id="jVQU0pwTON0__Qo3HRDj-8" style="edgeStyle=orthogonalEdgeStyle;rounded=0;orthogonalLoop=1;jettySize=auto;html=1;exitX=1;exitY=0.5;exitDx=0;exitDy=0;endArrow=oval;endFill=0;" edge="1" parent="1">
          <mxGeometry relative="1" as="geometry">
            <mxPoint x="235.9799999999999" y="218.07000000000002" as="targetPoint" />
            <mxPoint x="235.8599999999998" y="198.085" as="sourcePoint" />
            <Array as="points">
              <mxPoint x="235.9799999999999" y="218.07000000000002" />
            </Array>
          </mxGeometry>
        </mxCell>
        <mxCell id="jVQU0pwTON0__Qo3HRDj-9" value="&lt;font style=&quot;font-size: 8px;&quot;&gt;Durata&lt;/font&gt;" style="text;html=1;align=center;verticalAlign=middle;whiteSpace=wrap;rounded=1;strokeColor=none;glass=0;" vertex="1" parent="1">
          <mxGeometry x="149.4999999999999" y="214.12000000000003" width="50" height="17" as="geometry" />
        </mxCell>
        <mxCell id="jVQU0pwTON0__Qo3HRDj-10" style="edgeStyle=orthogonalEdgeStyle;rounded=0;orthogonalLoop=1;jettySize=auto;html=1;exitX=1;exitY=0.5;exitDx=0;exitDy=0;endArrow=oval;endFill=0;" edge="1" parent="1">
          <mxGeometry relative="1" as="geometry">
            <mxPoint x="173.38" y="217.16000000000005" as="targetPoint" />
            <mxPoint x="172.97000000000014" y="196.73999999999998" as="sourcePoint" />
            <Array as="points">
              <mxPoint x="172.97000000000014" y="216.73999999999998" />
            </Array>
          </mxGeometry>
        </mxCell>
        <mxCell id="jVQU0pwTON0__Qo3HRDj-11" style="edgeStyle=orthogonalEdgeStyle;rounded=0;orthogonalLoop=1;jettySize=auto;html=1;exitX=0.25;exitY=0;exitDx=0;exitDy=0;entryX=0.842;entryY=1.009;entryDx=0;entryDy=0;entryPerimeter=0;endArrow=oval;endFill=1;" edge="1" parent="1">
          <mxGeometry relative="1" as="geometry">
            <mxPoint x="199.54999999999984" y="171.80000000000004" as="sourcePoint" />
            <mxPoint x="202.54999999999984" y="158.80000000000004" as="targetPoint" />
          </mxGeometry>
        </mxCell>
        <mxCell id="jVQU0pwTON0__Qo3HRDj-12" value="&lt;font style=&quot;font-size: 9px;&quot;&gt;Codice&lt;/font&gt;" style="text;html=1;align=center;verticalAlign=middle;whiteSpace=wrap;rounded=0;" vertex="1" parent="1">
          <mxGeometry x="181.04999999999984" y="139.14101167315172" width="40" height="17.314202334630348" as="geometry" />
        </mxCell>
        <mxCell id="jVQU0pwTON0__Qo3HRDj-13" value="Visita" style="whiteSpace=wrap;html=1;align=center;" vertex="1" parent="1">
          <mxGeometry x="155.86" y="171.80000000000004" width="90.38" height="26.28" as="geometry" />
        </mxCell>
      </root>
    </mxGraphModel>
  </diagram>
</mxfile>
